<svg width="32" height="32" viewBox="0 0 32 32" fill="none" xmlns="http://www.w3.org/2000/svg">
    <path d="M12.0033 2.99609C10.3586 2.99609 8.99757 4.35722 8.99757 6.0018V6.99784H4.00174C2.35654 6.99784 1.00385 8.35641 1.00385 10.0016V12.0015C1.00385 13.1374 1.64623 14.1748 2.65806 14.681C2.77081 14.7374 2.88318 14.7945 2.99593 14.8509V25.9969C2.99593 27.6415 4.35703 29.0026 6.00163 29.0026H25.9967C27.6413 29.0026 29.0024 27.6415 29.0024 25.9969V14.8509C29.1156 14.7943 29.229 14.7377 29.3422 14.681C30.3542 14.1749 30.9945 13.1374 30.9945 12.0015V10.0016C30.9945 8.35641 29.6437 6.99784 27.9985 6.99784H23.0007V6.0018C23.0007 4.35722 21.6416 2.99609 19.997 2.99609H12.0033ZM12.0033 4.99599H19.997C20.5683 4.99599 21.0009 5.43051 21.0009 6.0018V6.99784H10.9975V6.0018C10.9975 5.43051 11.432 4.99599 12.0033 4.99599ZM4.00174 8.99774H27.9985C28.563 8.99774 29.0024 9.43707 29.0024 10.0016V12.0015C29.0024 12.3796 28.7839 12.7249 28.4419 12.896C24.4437 14.8963 20.4446 16.8944 16.4464 18.8957C16.1623 19.0378 15.8361 19.0378 15.5519 18.8957C11.5538 16.8944 7.55661 14.8963 3.5584 12.896C3.21623 12.7248 2.99593 12.3796 2.99593 12.0015V10.0016C2.99593 9.43707 3.43723 8.99774 4.00174 8.99774ZM15.9992 14.9994C15.4469 14.9994 14.9992 15.4471 14.9992 15.9993C14.9992 16.5516 15.4469 16.9993 15.9992 16.9993C16.5514 16.9993 16.9991 16.5516 16.9991 15.9993C16.9991 15.4471 16.5514 14.9994 15.9992 14.9994ZM4.99778 15.8509C8.21639 17.461 11.4336 19.0719 14.6516 20.6827C15.4969 21.1058 16.5014 21.1058 17.3467 20.6827C20.5648 19.0719 23.7838 17.461 27.0025 15.8509V25.9969C27.0025 26.5681 26.5679 27.0007 25.9967 27.0007H6.00163C5.43041 27.0007 4.99778 26.5681 4.99778 25.9969V15.8509Z" fill="#A31D00"/>
</svg>
