<svg width="28" height="24" viewBox="0 0 28 24" fill="none" xmlns="http://www.w3.org/2000/svg">
    <path d="M21 2C22.7 4.3 19.2 4.3 21 7M14 23C27.5 23 27.2 21.2 26.9 17.4C26.6 13.2 22 10 14 10C6 10 1.4 13.2 1.1 17.4C0.800001 21.2 0.500001 23 14 23ZM14 15C14 13.5 14.1 11.8 15 10L14 15ZM8 15C8 13.5 8.1 12.4 9 10.7L8 15ZM20 15C20 13.7 20.1 12.6 20.8 11.1L20 15ZM14 1C15.7 3.3 12.2 3.3 14 6V1ZM7 2C8.7 4.3 5.2 4.3 7 7V2Z" stroke="#21A300" stroke-width="2" stroke-miterlimit="10" stroke-linecap="round" stroke-linejoin="round"/>
</svg>
