<svg width="32" height="32" viewBox="0 0 32 32" fill="none" xmlns="http://www.w3.org/2000/svg">
    <path d="M5.3335 8H26.6668M21.3335 8L20.9727 6.91743C20.623 5.86833 20.448 5.34379 20.1238 4.95597C19.8374 4.61351 19.4696 4.34843 19.0542 4.18504C18.5836 4 18.0308 4 16.925 4H15.0754C13.9695 4 13.4167 4 12.9462 4.18504C12.5307 4.34843 12.1629 4.61351 11.8766 4.95597C11.5522 5.34379 11.3774 5.86833 11.0277 6.91743L10.6668 8M24.0002 8V21.6C24.0002 23.8403 24.0002 24.9603 23.5642 25.816C23.1807 26.5687 22.5688 27.1805 21.8162 27.564C20.9604 28 19.8404 28 17.6002 28H14.4002C12.16 28 11.0398 28 10.1842 27.564C9.43155 27.1805 8.81963 26.5687 8.43614 25.816C8.00016 24.9603 8.00016 23.8403 8.00016 21.6V8M18.6668 13.3333V22.6667M13.3335 13.3333V22.6667" stroke="#FF4949" stroke-width="2.5" stroke-linecap="round" stroke-linejoin="round"/>
</svg>
