<svg width="32" height="32" viewBox="0 0 32 32" fill="none" xmlns="http://www.w3.org/2000/svg">
    <path d="M11.1539 4.00293C7.21929 4.00293 4.0018 7.1889 4.00181 11.1043C4.03934 12.0778 4.20143 13.1653 4.40023 14.0065H2.99599C1.63244 13.9763 1.63244 16.0369 2.99599 16.0063H5.02521C6.77759 20.5602 10.699 25.1132 15.5092 27.8673C15.8156 28.0415 16.191 28.0415 16.4974 27.8673C19.6774 26.0465 22.5124 23.3151 24.5811 20.3246C25.5508 18.9227 26.3472 17.4639 26.9306 16.0063H29.0028C30.3663 16.0366 30.3663 13.9759 29.0028 14.0065H27.5849C27.8492 12.9981 27.9856 12.0579 27.9989 11.1043C27.9989 7.1889 24.7795 4.00293 20.8449 4.00293C19.0134 4.00293 17.2915 4.6992 15.9935 5.88766C14.6966 4.70214 12.9837 4.00293 11.1539 4.00293ZM11.1539 6.00484C12.7475 6.00484 14.2159 6.72436 15.1772 7.91483C15.5501 8.37686 16.241 8.41416 16.6615 7.99499C17.9014 6.906 19.4473 6.02756 20.8449 6.00484C23.6609 6.00484 25.9181 8.20622 25.9912 10.9675C25.9284 12.0376 25.764 13.1409 25.5088 14.0065H21.0011C20.7361 14.0045 20.4811 14.1077 20.2922 14.2937L19.2727 15.3133L17.8938 12.5595C17.5246 11.8249 16.476 11.8249 16.1068 12.5595L15.1029 14.5672L13.9291 11.6297C13.7762 11.2469 13.4039 10.9973 12.9917 11.0009C12.6583 11.0042 12.3485 11.1732 12.1655 11.452L10.4664 14.0066H6.51538C6.22992 12.9421 6.03775 11.8972 6.0115 10.9227C6.10789 8.18267 8.35325 6.00496 11.1539 6.00496V6.00484ZM12.7769 14.1392L14.0698 17.3716C14.3878 18.173 15.5032 18.2232 15.892 17.4536L16.9993 15.2389L18.1067 17.4536C18.4129 18.0633 19.2262 18.1943 19.7082 17.7114L21.4132 16.0063H24.749C24.2677 17.0661 23.6577 18.1425 22.9347 19.1878C21.1564 21.7585 18.6532 24.0238 16.0033 25.668C12.1792 23.295 8.98003 19.5724 7.30051 16.0063H10.9976C11.3345 16.0063 11.6487 15.8366 11.8335 15.5551L12.7769 14.1392Z" fill="#00A3A3"/>
</svg>
