<svg width="32" height="32" viewBox="0 0 32 32" fill="none" xmlns="http://www.w3.org/2000/svg">
    <path d="M25.8435 26.7222C25.5985 26.7222 25.355 26.6412 25.1555 26.4837L17.335 20.3427C17.0665 20.1317 16.9095 19.8092 16.9095 19.4677V9.26867C16.9095 8.92667 17.066 8.60417 17.3345 8.39367L25.155 2.25117C25.4905 1.98867 25.946 1.93917 26.33 2.12567C26.713 2.31167 26.956 2.70017 26.956 3.12667V25.6092C26.956 26.0352 26.713 26.4242 26.33 26.6102C26.175 26.6852 26.0085 26.7222 25.8435 26.7222ZM19.1355 18.9262L24.73 23.3197V5.41617L19.1355 9.81017V18.9262Z" fill="#A30089"/>
    <path d="M18.0225 20.5531H6.186C2.775 20.5531 0 17.7786 0 14.3671C0 10.9566 2.775 8.18164 6.186 8.18164H18.0225C18.637 8.18164 19.1355 8.67964 19.1355 9.29514V19.4401C19.1355 20.0546 18.637 20.5531 18.0225 20.5531ZM6.186 10.4076C4.0025 10.4076 2.226 12.1836 2.226 14.3671C2.226 16.5506 4.0025 18.3271 6.186 18.3271H16.9095V10.4076H6.186Z" fill="#A30089"/>
    <path d="M8.59197 29.9871C7.86597 29.9871 7.15497 29.7766 6.53247 29.3701C5.68647 28.8181 5.10597 27.9691 4.89797 26.9816L3.29047 19.3386C3.16397 18.7371 3.54897 18.1466 4.15047 18.0201C4.75347 17.8931 5.34247 18.2791 5.46897 18.8801L7.07697 26.5231C7.16247 26.9296 7.40097 27.2786 7.74997 27.5066C8.09747 27.7331 8.51247 27.8126 8.91897 27.7261C9.75697 27.5486 10.296 26.7211 10.1195 25.8836L8.81247 19.6691C8.68597 19.0676 9.07147 18.4776 9.67297 18.3506C10.275 18.2246 10.8645 18.6096 10.991 19.2111L12.298 25.4251C12.7265 27.4621 11.4175 29.4716 9.37997 29.9041C9.11697 29.9596 8.85297 29.9871 8.59197 29.9871ZM27.566 18.8021H25.8425C25.228 18.8021 24.7295 18.3041 24.7295 17.6886C24.7295 17.0741 25.228 16.5756 25.8425 16.5756H27.566C28.1555 16.5756 28.7095 16.3466 29.125 15.9306C29.5435 15.5126 29.774 14.9576 29.774 14.3671C29.774 13.1491 28.7835 12.1591 27.566 12.1591H25.8425C25.228 12.1591 24.7295 11.6606 24.7295 11.0456C24.7295 10.4306 25.228 9.93262 25.8425 9.93262H27.566C30.011 9.93262 32 11.9216 32 14.3666C32 15.5511 31.538 16.6656 30.699 17.5046C29.863 18.3421 28.75 18.8021 27.566 18.8021Z" fill="#A30089"/>
</svg>
