<svg width="32" height="32" viewBox="0 0 32 32" fill="none" xmlns="http://www.w3.org/2000/svg">
    <g clip-path="url(#clip0_253_2575)">
        <path d="M25.3333 6.66895H22.6667C21.196 6.66895 20 7.86495 20 9.33561V13.3356H12V9.33561C12 7.86495 10.804 6.66895 9.33333 6.66895H6.66667C5.196 6.66895 4 7.86495 4 9.33561V20.0023C4 21.4729 5.196 22.6689 6.66667 22.6689H9.33333C10.804 22.6689 12 21.4729 12 20.0023V16.0023H20V20.0023C20 21.4729 21.196 22.6689 22.6667 22.6689H25.3333C26.804 22.6689 28 21.4729 28 20.0023V9.33561C28 7.86495 26.804 6.66895 25.3333 6.66895ZM6.66667 20.0023V9.33561H9.33333L9.33467 20.0023H6.66667ZM22.6667 20.0023V9.33561H25.3333L25.3347 20.0023H22.6667ZM29.3333 12.0023H32V17.3356H29.3333V12.0023ZM0 12.0023H2.66667V17.3356H0V12.0023Z" fill="#00A32F"/>
    </g>
    <defs>
        <clipPath id="clip0_253_2575">
            <rect width="32" height="32.0027" fill="white"/>
        </clipPath>
    </defs>
</svg>
