<svg width="29" height="29" viewBox="0 0 29 29" fill="none" xmlns="http://www.w3.org/2000/svg">
    <path d="M6.97103 26.9323H5.97103C4.87803 26.9323 3.91203 26.4983 3.25203 25.7123C2.59203 24.9253 2.32303 23.8483 2.51603 22.7583C2.89403 20.6123 4.87603 18.9323 7.03003 18.9323H9.54803V5.80332C9.55024 5.04271 9.84032 4.31113 10.36 3.75569C10.8796 3.20025 11.5902 2.86213 12.349 2.80932L23.349 2.07632C23.7586 2.05045 24.1692 2.10831 24.5557 2.24637C24.9422 2.38443 25.2965 2.59979 25.597 2.87932C26.201 3.44432 26.548 4.24332 26.548 5.07032L26.538 19.4393C26.537 19.6593 26.526 19.8773 26.485 20.1073C26.107 22.2523 24.125 23.9323 21.971 23.9323H20.971C19.878 23.9323 18.912 23.4983 18.252 22.7123C17.592 21.9253 17.323 20.8483 17.516 19.7583C17.894 17.6123 19.876 15.9323 22.03 15.9323H24.548V11.0703C24.548 10.7903 24.436 10.5303 24.231 10.3393C24.1316 10.2452 24.0136 10.1729 23.8847 10.1269C23.7557 10.0809 23.6186 10.0623 23.482 10.0723L12.482 10.8053C12.2291 10.823 11.9922 10.9357 11.819 11.1208C11.6457 11.306 11.5489 11.5498 11.548 11.8033V22.4323C11.548 22.5213 11.536 22.6073 11.515 22.6893C11.506 22.9943 11.495 23.0503 11.486 23.1073C11.106 25.2513 9.12403 26.9323 6.97103 26.9323ZM7.02903 20.9323C5.85703 20.9323 4.69203 21.9273 4.48403 23.1063C4.39403 23.6203 4.50103 24.0883 4.78403 24.4273C5.05703 24.7523 5.47903 24.9323 5.97103 24.9323H6.97103C8.14303 24.9323 9.30803 23.9373 9.51603 22.7583C9.51303 22.7563 9.52703 22.4653 9.53603 20.9323H7.02903ZM22.029 17.9323C20.857 17.9323 19.692 18.9273 19.484 20.1063C19.394 20.6203 19.501 21.0883 19.784 21.4273C20.057 21.7523 20.479 21.9323 20.971 21.9323H21.971C23.143 21.9323 24.308 20.9373 24.516 19.7583C24.536 19.6453 24.537 19.5353 24.537 19.4283L24.544 17.9323H22.029ZM12.48 4.80532C12.2271 4.823 11.9902 4.93572 11.817 5.12084C11.6437 5.30596 11.5469 5.54978 11.546 5.80332V8.97532C11.799 8.88532 12.067 8.82832 12.347 8.80932L23.347 8.07632C23.755 8.05332 24.164 8.10732 24.546 8.24232V5.06932C24.546 4.78932 24.434 4.52932 24.229 4.33832C24.1295 4.24441 24.0115 4.17219 23.8825 4.12623C23.7536 4.08027 23.6166 4.06157 23.48 4.07132L12.48 4.80532Z" fill="#A000A3"/>
</svg>
