<svg width="32" height="32" viewBox="0 0 32 32" fill="none" xmlns="http://www.w3.org/2000/svg">
    <path d="M28.6533 13.5864L27.32 12.8531L15.32 6.18645H15.1733C15.0916 6.15188 15.0068 6.1251 14.92 6.10645H14.6667H14.4267C14.3356 6.12511 14.2463 6.15188 14.16 6.18645H14.0133L2.01333 12.8531C1.80814 12.9694 1.63746 13.138 1.51871 13.3418C1.39997 13.5456 1.3374 13.7773 1.3374 14.0131C1.3374 14.249 1.39997 14.4806 1.51871 14.6844C1.63746 14.8882 1.80814 15.0568 2.01333 15.1731L5.33333 17.0131V23.3331C5.33333 24.394 5.75476 25.4114 6.50491 26.1615C7.25505 26.9117 8.27247 27.3331 9.33333 27.3331H20C21.0609 27.3331 22.0783 26.9117 22.8284 26.1615C23.5786 25.4114 24 24.394 24 23.3331V17.0131L26.6667 15.5198V19.3331C26.6667 19.6867 26.8071 20.0259 27.0572 20.2759C27.3072 20.526 27.6464 20.6664 28 20.6664C28.3536 20.6664 28.6928 20.526 28.9428 20.2759C29.1929 20.0259 29.3333 19.6867 29.3333 19.3331V14.7464C29.3329 14.5102 29.2697 14.2783 29.1503 14.0745C29.0308 13.8706 28.8593 13.7022 28.6533 13.5864ZM21.3333 23.3331C21.3333 23.6867 21.1929 24.0259 20.9428 24.2759C20.6928 24.526 20.3536 24.6664 20 24.6664H9.33333C8.97971 24.6664 8.64057 24.526 8.39052 24.2759C8.14048 24.0259 8 23.6867 8 23.3331V18.4931L14.0133 21.8264L14.2133 21.9064H14.3333C14.444 21.9204 14.556 21.9204 14.6667 21.9064C14.7773 21.9204 14.8893 21.9204 15 21.9064H15.12C15.1908 21.8915 15.2585 21.8645 15.32 21.8264L21.3333 18.4931V23.3331ZM14.6667 19.1464L5.41333 13.9998L14.6667 8.85311L23.92 13.9998L14.6667 19.1464Z" fill="#0055A3"/>
</svg>
