<svg width="24" height="24" viewBox="0 0 24 24" fill="none" xmlns="http://www.w3.org/2000/svg">
    <path d="M16.773 8.28724L8.28771 16.7725C7.99779 17.0624 7.51696 17.0624 7.22705 16.7725C6.93713 16.4826 6.93713 16.0018 7.22705 15.7119L15.7123 7.22658C16.0022 6.93666 16.4831 6.93666 16.773 7.22658C17.0629 7.51649 17.0629 7.99732 16.773 8.28724Z" fill="white" fill-opacity="0.87"/>
    <path d="M16.773 16.7734C16.4831 17.0633 16.0022 17.0633 15.7123 16.7734L7.22705 8.28814C6.93713 7.99823 6.93713 7.5174 7.22705 7.22748C7.51696 6.93757 7.99779 6.93757 8.28771 7.22748L16.773 15.7128C17.0629 16.0027 17.0629 16.4835 16.773 16.7734Z" fill="white" fill-opacity="0.87"/>
</svg>
