<svg width="227" height="227" viewBox="0 0 227 227" fill="none" xmlns="http://www.w3.org/2000/svg">
    <path d="M227 173.61H0V173.723H227V173.61Z" fill="#EBEBEB"/>
    <path d="M204.255 177.932H162.986V178.046H204.255V177.932Z" fill="#EBEBEB"/>
    <path d="M150.374 176.702H139.074V176.815H150.374V176.702Z" fill="#EBEBEB"/>
    <path d="M176.202 182.149H158.682V182.263H176.202V182.149Z" fill="#EBEBEB"/>
    <path d="M34.0954 181.387H23.8168V181.5H34.0954V181.387Z" fill="#EBEBEB"/>
    <path d="M50.344 181.387H38.136V181.5H50.344V181.387Z" fill="#EBEBEB"/>
    <path d="M102.218 179.471H80.9528V179.584H102.218V179.471Z" fill="#EBEBEB"/>
    <path d="M107.598 153.361H19.9352C19.2484 153.36 18.5902 153.087 18.105 152.601C17.6198 152.115 17.3474 151.456 17.3474 150.769V27.5399C17.3533 26.8571 17.6285 26.2042 18.113 25.723C18.5975 25.2419 19.2523 24.9714 19.9352 24.9702H107.598C108.286 24.9702 108.945 25.2433 109.431 25.7295C109.917 26.2157 110.19 26.875 110.19 27.5626V150.769C110.19 151.457 109.917 152.116 109.431 152.602C108.945 153.088 108.286 153.361 107.598 153.361V153.361ZM19.9352 25.061C19.2785 25.0622 18.6492 25.3239 18.1853 25.7887C17.7214 26.2534 17.4608 26.8832 17.4609 27.5399V150.769C17.4608 151.426 17.7214 152.056 18.1853 152.52C18.6492 152.985 19.2785 153.247 19.9352 153.248H107.598C108.255 153.247 108.885 152.985 109.35 152.521C109.814 152.056 110.076 151.426 110.077 150.769V27.5399C110.076 26.8828 109.814 26.253 109.35 25.7884C108.885 25.3238 108.255 25.0622 107.598 25.061H19.9352Z" fill="#EBEBEB"/>
    <path d="M205.803 153.361H118.135C117.448 153.36 116.789 153.087 116.304 152.601C115.818 152.115 115.544 151.456 115.543 150.769V27.5399C115.55 26.8566 115.826 26.2038 116.312 25.7228C116.797 25.2418 117.452 24.9714 118.135 24.9702H205.803C206.485 24.9726 207.138 25.2436 207.622 25.7246C208.105 26.2056 208.38 26.8578 208.386 27.5399V150.769C208.386 151.455 208.114 152.113 207.63 152.599C207.146 153.085 206.489 153.359 205.803 153.361V153.361ZM118.135 25.061C117.478 25.0622 116.848 25.3238 116.384 25.7884C115.919 26.253 115.658 26.8828 115.656 27.5399V150.769C115.658 151.426 115.919 152.056 116.384 152.521C116.848 152.985 117.478 153.247 118.135 153.248H205.803C206.46 153.247 207.09 152.985 207.554 152.521C208.019 152.056 208.28 151.426 208.282 150.769V27.5399C208.28 26.8828 208.019 26.253 207.554 25.7884C207.09 25.3238 206.46 25.0622 205.803 25.061H118.135Z" fill="#EBEBEB"/>
    <path d="M23.8123 173.605H78.0925L78.0925 53.5633H23.8123L23.8123 173.605Z" fill="#F0F0F0"/>
    <path d="M23.8168 173.605H75.5229L75.5229 53.5633H23.8168L23.8168 173.605Z" fill="#F5F5F5"/>
    <path d="M72.7989 170.886V56.2915H26.5408L26.5408 170.886H72.7989Z" fill="#F0F0F0"/>
    <path d="M41.4865 110.322H32.057C31.7358 110.321 31.4282 110.193 31.2011 109.966C30.9741 109.739 30.846 109.431 30.8448 109.11V109.11C30.846 108.789 30.9741 108.481 31.2011 108.254C31.4282 108.027 31.7358 107.899 32.057 107.898H41.4865C41.8077 107.899 42.1153 108.027 42.3424 108.254C42.5694 108.481 42.6975 108.789 42.6987 109.11V109.11C42.6975 109.431 42.5694 109.739 42.3424 109.966C42.1153 110.193 41.8077 110.321 41.4865 110.322Z" fill="white"/>
    <path d="M27.2491 170.886L27.2491 56.2915H26.5408L26.5408 170.886H27.2491Z" fill="#F0F0F0"/>
    <path d="M103.526 171.331H111.607V136.282H103.526V171.331Z" fill="#F0F0F0"/>
    <path d="M70.202 173.555H110.054V171.335H70.202V173.555Z" fill="#F0F0F0"/>
    <path d="M103.526 136.287H68.6494V171.335H103.526V136.287Z" fill="#F5F5F5"/>
    <path d="M100.343 140.6H71.8228V152.095H100.343V140.6Z" fill="#F0F0F0"/>
    <path d="M100.343 155.522H71.8228V167.018H100.343V155.522Z" fill="#F0F0F0"/>
    <path d="M82.8822 141.567H89.2882C89.4961 141.565 89.6952 141.482 89.8422 141.335C89.9893 141.188 90.0724 140.989 90.0736 140.781C90.0736 140.572 89.991 140.372 89.8438 140.224C89.6966 140.076 89.4969 139.992 89.2882 139.991H82.8822C82.6735 139.992 82.4737 140.076 82.3266 140.224C82.1794 140.372 82.0968 140.572 82.0968 140.781V140.781C82.098 140.989 82.1811 141.188 82.3282 141.335C82.4752 141.482 82.6743 141.565 82.8822 141.567V141.567Z" fill="#F5F5F5"/>
    <path d="M82.8822 156.494H89.2882C89.4938 156.493 89.6909 156.412 89.8375 156.268C89.9842 156.124 90.0689 155.928 90.0736 155.722V155.722C90.0724 155.514 89.9893 155.315 89.8422 155.168C89.6952 155.021 89.4961 154.938 89.2882 154.937H82.8822C82.6743 154.938 82.4752 155.021 82.3282 155.168C82.1811 155.315 82.098 155.514 82.0968 155.722V155.722C82.1015 155.928 82.1862 156.124 82.3329 156.268C82.4795 156.412 82.6766 156.493 82.8822 156.494V156.494Z" fill="#F5F5F5"/>
    <path d="M88.7434 135.597C88.5848 135.595 88.4331 135.532 88.3209 135.42C88.2088 135.308 88.1453 135.156 88.1441 134.997V116.787C88.1441 116.628 88.2072 116.476 88.3196 116.364C88.432 116.251 88.5844 116.188 88.7434 116.188V116.188C88.902 116.189 89.0537 116.253 89.1658 116.365C89.278 116.477 89.3415 116.629 89.3427 116.787V134.997C89.3415 135.156 89.278 135.308 89.1658 135.42C89.0537 135.532 88.902 135.595 88.7434 135.597V135.597Z" fill="#F5F5F5"/>
    <path d="M94.3503 134.888H83.1365V136.3H94.3503V134.888Z" fill="#F0F0F0"/>
    <path d="M91.8487 124.7C91.77 124.7 91.6945 124.669 91.6384 124.614C91.5824 124.559 91.5503 124.484 91.5491 124.405V115.316C91.5502 115.237 91.5822 115.162 91.6381 115.106C91.6941 115.05 91.7696 115.018 91.8487 115.017C91.9278 115.018 92.0034 115.05 92.0593 115.106C92.1152 115.162 92.1472 115.237 92.1484 115.316V124.396C92.149 124.436 92.1416 124.475 92.1269 124.512C92.1121 124.549 92.0901 124.583 92.0622 124.611C92.0343 124.639 92.0011 124.662 91.9644 124.677C91.9278 124.693 91.8884 124.7 91.8487 124.7Z" fill="#F0F0F0"/>
    <path d="M80.022 118.449C80.022 118.449 80.2445 109.868 88.7434 109.868C97.2423 109.868 97.4602 118.44 97.4602 118.44L80.022 118.449Z" fill="#F0F0F0"/>
    <path d="M153.593 130.571C153.833 130.571 154.079 130.571 154.324 130.593C156.835 130.775 159.196 131.858 160.972 133.642C162.748 135.426 163.82 137.793 163.989 140.305C164.061 141.446 163.948 142.591 163.653 143.696C162.515 148.128 161.966 152.691 162.019 157.266V170.586C162.02 170.817 161.974 171.046 161.886 171.259C161.798 171.472 161.669 171.666 161.505 171.828C161.342 171.991 161.148 172.12 160.935 172.208C160.721 172.296 160.493 172.34 160.262 172.339H117.981V130.571H153.593Z" fill="#F0F0F0"/>
    <path d="M107.562 140.99C107.566 139.509 107.886 138.046 108.501 136.698C109.116 135.351 110.011 134.15 111.127 133.176C112.242 132.202 113.553 131.477 114.971 131.05C116.389 130.622 117.882 130.502 119.35 130.697C120.818 130.893 122.227 131.399 123.484 132.182C124.741 132.965 125.817 134.008 126.639 135.24C127.461 136.472 128.011 137.865 128.252 139.326C128.493 140.787 128.42 142.283 128.037 143.714C126.903 148.146 126.355 152.709 126.407 157.284V170.604C126.407 170.834 126.362 171.062 126.274 171.274C126.186 171.486 126.056 171.679 125.894 171.842C125.731 172.004 125.538 172.133 125.325 172.22C125.112 172.308 124.885 172.353 124.655 172.352H111.303C111.073 172.352 110.846 172.307 110.634 172.219C110.422 172.131 110.229 172.002 110.067 171.84C109.904 171.678 109.776 171.485 109.688 171.273C109.6 171.061 109.555 170.834 109.555 170.604V156.485C109.593 152.194 109.05 147.918 107.938 143.773C107.688 142.866 107.561 141.93 107.562 140.99V140.99Z" fill="#F5F5F5"/>
    <path d="M132.336 172.339H170.295V146.978H132.336V172.339Z" fill="#F0F0F0"/>
    <path d="M201.667 152.717H150.86V113.823C150.86 111.732 151.69 109.728 153.168 108.25C154.646 106.772 156.651 105.941 158.741 105.941H193.785C195.876 105.941 197.88 106.772 199.358 108.25C200.836 109.728 201.667 111.732 201.667 113.823V152.717Z" fill="#E0E0E0"/>
    <path d="M191.738 152.717H140.931V113.441C140.931 111.451 141.721 109.542 143.129 108.135C144.536 106.727 146.445 105.937 148.435 105.937H184.215C186.205 105.937 188.114 106.727 189.522 108.135C190.929 109.542 191.72 111.451 191.72 113.441V152.717H191.738Z" fill="#F5F5F5"/>
    <path d="M167.817 154.991H132.827C132.225 154.991 131.647 154.752 131.222 154.326C130.796 153.901 130.557 153.323 130.557 152.721V146.969C130.557 146.367 130.796 145.79 131.222 145.364C131.647 144.938 132.225 144.699 132.827 144.699H167.817C167.998 144.699 168.173 144.771 168.301 144.9C168.43 145.028 168.502 145.203 168.502 145.385V154.31C168.501 154.491 168.428 154.664 168.3 154.792C168.171 154.92 167.998 154.991 167.817 154.991Z" fill="#E0E0E0"/>
    <path d="M205.412 130.571C205.653 130.571 205.894 130.571 206.143 130.593C208.654 130.776 211.014 131.859 212.789 133.643C214.564 135.428 215.635 137.793 215.804 140.305C215.881 141.446 215.767 142.592 215.468 143.696C214.33 148.129 213.78 152.694 213.834 157.271V170.591C213.834 170.821 213.789 171.048 213.701 171.261C213.612 171.473 213.483 171.666 213.32 171.828C213.158 171.991 212.964 172.119 212.752 172.207C212.539 172.295 212.311 172.339 212.082 172.339H169.796V130.571H205.412Z" fill="#F0F0F0"/>
    <path d="M159.381 140.99C159.363 138.275 160.406 135.66 162.288 133.702C164.169 131.744 166.741 130.599 169.455 130.51C172.169 130.422 174.81 131.396 176.816 133.227C178.822 135.057 180.033 137.598 180.193 140.309C180.264 141.45 180.151 142.595 179.857 143.7C178.719 148.132 178.169 152.695 178.222 157.27V170.591C178.222 171.054 178.038 171.499 177.71 171.827C177.382 172.154 176.938 172.339 176.474 172.339H163.118C162.888 172.339 162.661 172.293 162.449 172.206C162.237 172.118 162.044 171.989 161.882 171.827C161.719 171.664 161.591 171.472 161.503 171.26C161.415 171.048 161.37 170.82 161.37 170.591V156.485C161.408 152.194 160.865 147.918 159.758 143.773C159.508 142.866 159.381 141.93 159.381 140.99Z" fill="#F5F5F5"/>
    <path d="M118.721 173.61H204.668C204.834 173.61 205 173.577 205.154 173.513C205.308 173.449 205.447 173.356 205.565 173.237C205.683 173.119 205.776 172.979 205.839 172.825C205.903 172.671 205.935 172.506 205.934 172.339H117.454C117.454 172.506 117.486 172.671 117.549 172.825C117.613 172.979 117.706 173.119 117.824 173.237C117.941 173.356 118.081 173.449 118.235 173.513C118.389 173.577 118.554 173.61 118.721 173.61Z" fill="#E0E0E0"/>
    <path d="M169.624 76.2134H197.268V46.0632H169.624V76.2134Z" fill="#E0E0E0"/>
    <path d="M167.975 76.2134H196.337V46.0632H167.975V76.2134Z" fill="#F5F5F5"/>
    <path d="M193.958 73.8388V48.4375H170.345V73.8388H193.958Z" fill="white"/>
    <path d="M182.154 54.7163L188.61 65.9029H175.698L182.154 54.7163Z" fill="#F5F5F5"/>
    <path d="M130.843 93.8149H158.487V63.6648H130.843V93.8149Z" fill="#E0E0E0"/>
    <path d="M129.195 93.8149H157.556V63.6648H129.195V93.8149Z" fill="#F5F5F5"/>
    <path d="M155.177 91.4404V66.0391H131.565V91.4404H155.177Z" fill="white"/>
    <path d="M140.486 83.2682L137.685 78.4149C137.393 77.9083 137.24 77.334 137.241 76.7496C137.241 76.1652 137.396 75.5912 137.688 75.0853C137.981 74.5793 138.401 74.1592 138.907 73.8671C139.414 73.575 139.988 73.4211 140.572 73.4209H146.188C146.772 73.4217 147.346 73.5758 147.852 73.868C148.358 74.1601 148.778 74.58 149.071 75.0856C149.364 75.5912 149.519 76.1648 149.52 76.7491C149.522 77.3333 149.37 77.9078 149.08 78.4149L146.279 83.2682C145.987 83.7786 145.565 84.2028 145.057 84.4978C144.548 84.7928 143.97 84.9482 143.382 84.9482C142.794 84.9482 142.217 84.7928 141.708 84.4978C141.199 84.2028 140.778 83.7786 140.486 83.2682V83.2682Z" fill="#F5F5F5"/>
    <path d="M143.691 45.082H39.0349L45.9221 187.611H150.578L143.691 45.082Z" fill="#D7D7D7"/>
    <path opacity="0.2" d="M143.691 45.082H39.0349L45.9221 187.611H150.578L143.691 45.082Z" fill="black"/>
    <path d="M144.658 45.082H40.002L46.8937 187.611H151.55L144.658 45.082Z" fill="#D7D7D7"/>
    <path opacity="0.2" d="M139.133 49.8765H44.7871L51.3792 181.169L133.417 181.06L147.051 168.974L139.133 49.8765Z" fill="black"/>
    <path d="M139.855 49.8721C140.861 89.1914 144.036 128.425 149.366 167.394C141.89 172.54 134.452 177.685 127.052 182.83H56.4912C49.8312 138.797 45.9223 94.3917 44.7871 49.8721H139.855Z" fill="white"/>
    <path d="M149.366 167.394C141.89 172.54 134.452 177.685 127.052 182.83C128.668 176.02 130.352 169.21 132.105 162.4L149.366 167.394Z" fill="#EBEBEB"/>
    <path d="M70.37 61.8847C70.5486 66.691 70.7574 71.5004 70.9965 76.3128H56.5729C56.3308 71.5004 56.122 66.691 55.9464 61.8847H70.37ZM71.8409 60.3638H54.371C54.5738 66.1841 54.8265 72.0074 55.1292 77.8337H72.6037C72.301 72.0104 72.0483 66.1871 71.8455 60.3638H71.8409Z" fill="#D7D7D7"/>
    <path d="M129.308 67.3007H79.904C79.8586 66.2157 79.8177 65.1261 79.7769 64.041H129.177C129.217 65.1261 129.263 66.2157 129.308 67.3007Z" fill="#E0E0E0"/>
    <path d="M118.871 74.1562H80.2082C80.1582 73.0666 80.1037 71.9815 80.0583 70.8965H118.716C118.768 71.9831 118.819 73.0696 118.871 74.1562Z" fill="#E0E0E0"/>
    <path d="M71.7865 90.1415C72.0892 94.9539 72.4266 99.7663 72.7989 104.579H58.3708C57.9985 99.7663 57.661 94.9539 57.3584 90.1415H71.7865ZM73.212 88.6206H55.7421C56.0993 94.4469 56.5064 100.273 56.9634 106.1H74.456C74.002 100.276 73.5934 94.45 73.2302 88.6206H73.212Z" fill="#D7D7D7"/>
    <path d="M99.6076 95.5626H81.4476C81.375 94.473 81.2978 93.3879 81.2297 92.2983H99.3897C99.4578 93.3879 99.5304 94.473 99.6076 95.5626Z" fill="#E0E0E0"/>
    <path d="M116.801 95.5626H103.448C103.376 94.473 103.299 93.3879 103.231 92.2983H116.583C116.651 93.3879 116.723 94.473 116.801 95.5626Z" fill="#E0E0E0"/>
    <path d="M125.181 102.422H81.947C81.8653 101.333 81.7881 100.248 81.7064 99.1582H124.941C125.023 100.248 125.1 101.333 125.181 102.422Z" fill="#E0E0E0"/>
    <path d="M73.952 118.412C74.3849 123.224 74.851 128.037 75.3504 132.849H60.9222C60.4228 128.037 59.9567 123.224 59.5239 118.412H73.952ZM75.3413 116.891H57.8668C58.3814 122.72 58.9443 128.548 59.5557 134.375H77.0302C76.4248 128.545 75.8619 122.717 75.3413 116.891V116.891Z" fill="#D7D7D7"/>
    <path d="M133.521 127.433H84.1125L84.4394 130.693H133.848L133.521 127.433Z" fill="#E0E0E0"/>
    <path d="M122.126 120.573H83.4633C83.5632 121.658 83.6631 122.748 83.7675 123.833H122.426C122.326 122.748 122.221 121.672 122.126 120.573Z" fill="#E0E0E0"/>
    <path d="M76.8713 146.683C77.4342 151.495 78.029 156.306 78.6555 161.116H64.2274C63.6008 156.309 63.0061 151.498 62.4431 146.683H76.8713ZM78.2333 145.162H60.7452C61.411 150.991 62.1299 156.816 62.9017 162.637H80.358C79.5922 156.816 78.8734 150.991 78.2015 145.162H78.2333Z" fill="#D7D7D7"/>
    <path d="M136.241 152.09H86.832C86.7004 151 86.5687 149.915 86.4416 148.826H135.846C135.978 149.929 136.105 151.014 136.241 152.09Z" fill="#E0E0E0"/>
    <path d="M110.181 158.959H87.6901C87.5494 157.874 87.4132 156.784 87.277 155.699H109.768C109.904 156.784 110.041 157.874 110.181 158.959Z" fill="#E0E0E0"/>
    <path d="M123.611 158.959H113.9C113.759 157.874 113.623 156.784 113.486 155.699H123.197C123.334 156.784 123.488 157.874 123.611 158.959Z" fill="#E0E0E0"/>
    <path d="M64.014 74.2518L63.3738 73.2349C61.9755 71.0103 59.1244 69.0263 58.1392 68.4452L58.8747 67.1422C60.8075 68.3159 62.5345 69.799 63.9867 71.5324C66.1841 68.5405 69.4347 65.4488 73.8839 62.1255L74.8237 63.3513C70.0749 66.9061 66.7516 70.1613 64.6541 73.2939L64.014 74.2518Z" fill="#D7D7D7"/>
    <path d="M65.7392 102.518L65.0718 101.501C63.619 99.2762 60.7134 97.2877 59.7146 96.7065L60.4092 95.4036C62.3789 96.5777 64.1464 98.0616 65.6438 99.7983C67.7595 96.8019 70.9239 93.7101 75.2868 90.3823C75.6091 90.7909 75.936 91.1995 76.2584 91.6127C71.6049 95.172 68.3678 98.4227 66.3566 101.56C66.1478 101.878 65.9435 102.2 65.7392 102.518Z" fill="#D7D7D7"/>
    <path d="M68.2453 130.861L67.5506 129.844C66.0343 127.619 63.0742 125.631 62.0618 125.054C62.2797 124.6 62.5158 124.183 62.7246 123.751C64.725 124.927 66.5294 126.409 68.0727 128.142C70.1112 125.145 73.1938 122.058 77.4614 118.726L78.4693 119.956C73.9293 123.515 70.7513 126.766 68.8309 129.903L68.2453 130.861Z" fill="#D7D7D7"/>
    <path d="M114.013 174.999C111.334 174.999 109.791 174.009 108.429 173.137C107.067 172.266 105.895 171.512 103.635 171.512C101.374 171.512 100.366 172.302 99.2989 173.137C98.232 173.973 96.9244 174.999 94.2458 174.999C91.5672 174.999 90.0237 174.009 88.6662 173.137C87.3087 172.266 86.1374 171.512 83.872 171.512C81.6065 171.512 80.6032 172.302 79.5363 173.137C78.4694 173.973 77.1618 174.999 74.4878 174.999C71.8137 174.999 70.2656 174.009 68.9036 173.137C67.5416 172.266 66.3748 171.512 64.1093 171.512C64.0503 171.058 63.9868 170.64 63.9277 170.205C66.6063 170.205 68.1454 171.194 69.5074 172.066C70.8694 172.938 72.0362 173.691 74.2971 173.691C76.558 173.691 77.5659 172.901 78.6328 172.066C79.6997 171.231 81.0118 170.205 83.6904 170.205C86.369 170.205 87.9035 171.194 89.2655 172.066C90.6275 172.938 91.7988 173.691 94.0597 173.691C96.3206 173.691 97.3285 172.901 98.3954 172.066C99.4623 171.231 100.774 170.205 103.453 170.205C106.132 170.205 107.671 171.194 109.033 172.066C110.395 172.938 111.561 173.691 113.827 173.691C113.886 174.127 113.954 174.563 114.013 174.999Z" fill="#EBEBEB"/>
    <path d="M117.854 48.6097C116.319 44.5237 112.774 41.8406 108.96 41.8406H101.188C100.609 41.8355 100.045 41.6608 99.5644 41.338C99.0842 41.0151 98.7093 40.5585 98.4862 40.0246C97.9368 38.7197 97.018 37.6038 95.8428 36.8142C94.6676 36.0245 93.2872 35.5955 91.8714 35.5799C90.5019 35.566 89.1636 35.9896 88.0514 36.789C86.9392 37.5885 86.1113 38.722 85.688 40.0246C85.5155 40.5576 85.177 41.0213 84.722 41.3481C84.267 41.6749 83.7193 41.8474 83.1592 41.8406H75.3912C71.5731 41.8406 68.2861 44.5373 67.1511 48.6097L66.6971 50.2305H118.453L117.854 48.6097Z" fill="#8687E7"/>
    <path d="M118.131 51.8284H67.192C66.7624 51.8234 66.3506 51.6557 66.0398 51.3591C65.7289 51.0626 65.542 50.6592 65.5167 50.2303V50.2303C65.5056 50.0242 65.5367 49.8181 65.6083 49.6245C65.6798 49.4309 65.7902 49.254 65.9327 49.1047C66.0752 48.9555 66.2467 48.8369 66.4368 48.7564C66.6268 48.6759 66.8313 48.6352 67.0376 48.6368H117.976C118.405 48.6417 118.816 48.8087 119.127 49.1043C119.438 49.3999 119.625 49.8022 119.652 50.2303C119.663 50.4367 119.633 50.6434 119.562 50.8375C119.49 51.0316 119.38 51.2091 119.237 51.3589C119.095 51.5086 118.923 51.6276 118.733 51.7083C118.542 51.7891 118.338 51.83 118.131 51.8284V51.8284Z" fill="#BCBDFF"/>
    <path opacity="0.2" d="M118.131 51.8284H67.192C66.7624 51.8234 66.3506 51.6557 66.0398 51.3591C65.7289 51.0626 65.542 50.6592 65.5167 50.2303V50.2303C65.5056 50.0242 65.5367 49.8181 65.6083 49.6245C65.6798 49.4309 65.7902 49.254 65.9327 49.1047C66.0752 48.9555 66.2467 48.8369 66.4368 48.7564C66.6268 48.6759 66.8313 48.6352 67.0376 48.6368H117.976C118.405 48.6417 118.816 48.8087 119.127 49.1043C119.438 49.3999 119.625 49.8022 119.652 50.2303C119.663 50.4367 119.633 50.6434 119.562 50.8375C119.49 51.0316 119.38 51.2091 119.237 51.3589C119.095 51.5086 118.923 51.6276 118.733 51.7083C118.542 51.7891 118.338 51.83 118.131 51.8284V51.8284Z" fill="black"/>
    <path d="M163.858 186.244H160.53L160.198 178.54H163.526L163.858 186.244Z" fill="#FFC3BD"/>
    <path d="M183.829 186.244H180.501L178.831 178.54H182.154L183.829 186.244Z" fill="#FFC3BD"/>
    <path d="M180.265 185.858H184.002C184.068 185.858 184.132 185.88 184.183 185.922C184.234 185.963 184.27 186.021 184.283 186.085L184.941 189.045C184.956 189.117 184.955 189.192 184.937 189.263C184.92 189.334 184.887 189.4 184.84 189.457C184.793 189.514 184.735 189.559 184.668 189.59C184.602 189.621 184.529 189.637 184.456 189.636C183.153 189.613 182.517 189.536 180.874 189.536C179.861 189.536 177.777 189.64 176.384 189.64C174.99 189.64 174.804 188.278 175.376 188.137C177.941 187.575 178.903 186.803 179.725 186.063C179.874 185.931 180.066 185.858 180.265 185.858V185.858Z" fill="#263238"/>
    <path d="M160.553 185.858H164.185C164.25 185.858 164.314 185.88 164.366 185.922C164.417 185.963 164.452 186.021 164.466 186.085L165.124 189.045C165.14 189.115 165.141 189.187 165.126 189.257C165.111 189.326 165.08 189.392 165.037 189.448C164.994 189.505 164.938 189.551 164.875 189.583C164.811 189.616 164.741 189.633 164.67 189.636C163.358 189.613 161.465 189.536 159.817 189.536C157.892 189.536 156.23 189.64 153.97 189.64C152.608 189.64 152.226 188.278 152.798 188.137C155.4 187.565 157.524 187.506 159.772 186.117C160.004 185.963 160.274 185.873 160.553 185.858Z" fill="#263238"/>
    <path d="M167.072 64.8857C166.618 67.3192 166.355 70.3337 168.057 71.9591C168.057 71.9591 167.081 74.4288 162.559 74.4288C158.428 74.4288 160.498 71.9591 160.498 71.9591C163.222 71.3098 163.068 67.9548 162.596 66.0571L167.072 64.8857Z" fill="#FFC3BD"/>
    <path d="M159.2 72.2995C159.29 71.6957 160.353 70.992 161.56 70.7287C162.768 70.4653 167.408 69.8797 168.824 70.4653C170.241 71.051 168.579 72.7853 168.579 72.7853L159.2 72.2995Z" fill="#D7D7D7"/>
    <path opacity="0.4" d="M159.2 72.2995C159.29 71.6957 160.353 70.992 161.56 70.7287C162.768 70.4653 167.408 69.8797 168.824 70.4653C170.241 71.051 168.579 72.7853 168.579 72.7853L159.2 72.2995Z" fill="white"/>
    <path opacity="0.2" d="M160.198 178.544L160.371 182.512H163.699L163.526 178.544H160.198Z" fill="black"/>
    <path opacity="0.2" d="M182.158 178.544H178.831L179.693 182.512H183.021L182.158 178.544Z" fill="black"/>
    <path d="M174.949 74.9551L170.94 77.6337C170.94 77.6337 176.697 87.8714 176.216 89.5103C175.557 91.744 174.64 96.6245 173.392 99.1033C173.555 99.6391 174.386 100.86 174.849 101.069C178.027 98.6539 181.237 91.0812 181.119 88.961C180.842 84.1531 174.949 74.9551 174.949 74.9551Z" fill="#FFC3BD"/>
    <path d="M173.392 99.1128L170.214 98.8677L171.88 102.368C171.88 102.368 174.654 102.491 175.117 100.37L173.392 99.1128Z" fill="#B55B52"/>
    <path d="M189.1 116.183L188.832 116.687L187.034 120.087L123.211 86.3414L125.272 82.437L189.1 116.183Z" fill="#D7D7D7"/>
    <path d="M193.227 108.388L191.91 110.876L191.166 112.283L127.338 78.5372L129.399 74.6328L193.227 108.388Z" fill="#D7D7D7"/>
    <path d="M127.359 78.5257L125.293 82.4253L189.095 116.221L191.161 112.321L127.359 78.5257Z" fill="#D7D7D7"/>
    <path opacity="0.2" d="M127.359 78.5257L125.293 82.4253L189.095 116.221L191.161 112.321L127.359 78.5257Z" fill="black"/>
    <path d="M120.46 75.1507L118.603 78.6647L123.211 86.3418L129.399 74.6377L120.46 75.1507Z" fill="#D7D7D7"/>
    <path opacity="0.8" d="M120.46 75.1507L118.603 78.6647L123.211 86.3418L129.399 74.6377L120.46 75.1507Z" fill="white"/>
    <path d="M116.628 75.3729L118.603 78.6643L120.46 75.1504L116.628 75.3729Z" fill="#D7D7D7"/>
    <path d="M167.658 100.461L169.319 103.557L171.893 102.368L170.227 98.8677L167.658 100.461Z" fill="#B55B52"/>
    <path d="M173.995 72.7123C177.142 73.1663 180.746 84.0623 180.746 84.0623L174.136 87.7942C174.136 87.7942 171.226 82.6276 169.796 78.7686C168.289 74.7326 170.622 72.222 173.995 72.7123Z" fill="#8687E7"/>
    <path opacity="0.2" d="M172.166 76.4489C170.736 75.1414 171.612 80.7392 172.293 84.3213C172.643 85.0205 172.974 85.6561 173.255 86.1872C174.849 83.3724 174.136 78.2513 172.166 76.4489Z" fill="black"/>
    <path d="M155.363 72.8848C155.363 72.8848 151.436 82.9273 155.164 101.632H172.974C173.097 98.9081 171.38 85.5786 174.014 72.7123C172.047 72.3325 170.057 72.0808 168.057 71.9586C165.54 71.8133 163.016 71.8133 160.498 71.9586C158.765 72.132 157.048 72.4416 155.363 72.8848V72.8848Z" fill="#8687E7"/>
    <path d="M158.101 77.552L153.615 75.7769C153.615 75.7769 148.449 86.3233 146.805 86.8545C144.594 87.5809 140.054 89.5785 137.303 89.9689C136.958 90.4229 136.422 91.7849 136.509 92.2843C140.3 93.5237 148.367 91.8802 150.038 90.5818C153.87 87.6217 158.101 77.552 158.101 77.552Z" fill="#FFC3BD"/>
    <path opacity="0.2" d="M158.605 76.3534C157.865 74.6464 156.448 73.9336 154.973 74.1833C154.401 76.2762 153.434 80.8752 153.611 87.8033L154.669 88.3118C154.669 88.3118 159.872 79.2726 158.605 76.3534Z" fill="black"/>
    <path d="M159.313 75.1597C160.43 78.138 154.773 86.9002 154.773 86.9002L148.117 83.2682C149.117 80.5429 150.407 77.9326 151.963 75.4821C154.301 71.9908 158.083 71.8955 159.313 75.1597Z" fill="#8687E7"/>
    <path d="M137.467 89.96L133.508 90.7999L135.514 94.4636C136.621 93.9132 137.626 93.1794 138.488 92.2935L137.467 89.96Z" fill="#FFC3BD"/>
    <path d="M131.637 91.6305L133.217 93.8188L135.514 94.4817L133.508 90.8179L131.637 91.6305Z" fill="#FFC3BD"/>
    <path d="M159.526 61.3853C159.526 61.6532 159.358 61.8393 159.181 61.8393C159.004 61.8393 158.877 61.6032 158.895 61.3353C158.914 61.0675 159.063 60.8813 159.24 60.8813C159.417 60.8813 159.545 61.1174 159.526 61.3853Z" fill="#263238"/>
    <path d="M159.763 61.4077C159.396 62.2076 158.921 62.9531 158.351 63.6232C158.526 63.7651 158.73 63.8666 158.949 63.9207C159.168 63.9749 159.396 63.9803 159.617 63.9365L159.763 61.4077Z" fill="#ED847E"/>
    <path d="M159.186 60.459C159.162 60.4539 159.139 60.4447 159.118 60.4317C159.1 60.4207 159.085 60.4062 159.073 60.3891C159.061 60.3721 159.053 60.3528 159.049 60.3324C159.045 60.3121 159.044 60.2911 159.049 60.2707C159.053 60.2503 159.061 60.231 159.072 60.2138C159.204 60.0012 159.384 59.8229 159.598 59.6934C159.812 59.564 160.053 59.4872 160.303 59.4692C160.344 59.4714 160.383 59.4889 160.413 59.5182C160.442 59.5475 160.46 59.5867 160.462 59.6281C160.462 59.6703 160.445 59.7107 160.415 59.7405C160.385 59.7703 160.345 59.787 160.303 59.787C160.109 59.8051 159.922 59.8683 159.758 59.9716C159.593 60.0749 159.455 60.2154 159.354 60.3818C159.338 60.4106 159.312 60.4335 159.282 60.4473C159.252 60.4611 159.219 60.4652 159.186 60.459V60.459Z" fill="#263238"/>
    <path d="M168.552 61.1536C168.162 64.4315 168.098 66.3655 166.341 67.9636C163.694 70.3607 159.722 68.6219 159.122 65.2895C158.587 62.2931 159.318 57.4399 162.614 56.314C163.339 56.063 164.116 56.0016 164.872 56.1355C165.628 56.2694 166.337 56.5941 166.931 57.079C167.526 57.5638 167.988 58.1926 168.271 58.9057C168.555 59.6189 168.651 60.3926 168.552 61.1536V61.1536Z" fill="#FFC3BD"/>
    <path d="M161.946 61.7938C160.798 62.0208 158.964 59.4693 160.462 57.3037C159.704 56.9269 157.229 58.416 156.299 57.0268C155.368 55.6376 157.951 54.8975 157.456 53.7217C159.209 54.0803 156.321 56.2686 157.987 56.0552C159.654 55.8419 161.574 52.7637 163.435 54.0259C166.727 56.2368 171.212 52.5504 169.383 57.1675C171.626 56.7135 173.16 59.3649 171.022 61.2036C166.759 64.8583 169.383 65.3395 166.682 65.5257C165.329 65.6256 162.182 64.0139 161.946 61.7938Z" fill="#263238"/>
    <path d="M163.649 62.6519C163.492 62.9796 163.271 63.2726 162.998 63.5135C162.726 63.7544 162.409 63.9385 162.064 64.0548C161.156 64.368 160.634 63.5554 160.848 62.661C161.038 61.8529 161.756 60.7179 162.695 60.7996C162.902 60.8197 163.1 60.8913 163.271 61.0077C163.443 61.1241 163.582 61.2817 163.677 61.4659C163.772 61.6502 163.819 61.8553 163.814 62.0625C163.809 62.2697 163.752 62.4723 163.649 62.6519Z" fill="#FFC3BD"/>
    <path d="M161.474 101.632C161.474 101.632 165.251 127.056 167.322 136.59C169.592 147.032 178.141 181.759 178.141 181.759H184.233C184.233 181.759 178.599 147.863 177.301 137.535C175.898 126.33 172.956 101.646 172.956 101.646L161.474 101.632Z" fill="#D7D7D7"/>
    <path opacity="0.2" d="M161.474 101.632C161.474 101.632 165.251 127.056 167.322 136.59C169.592 147.032 178.141 181.759 178.141 181.759H184.233C184.233 181.759 178.599 147.863 177.301 137.535C175.898 126.33 172.956 101.646 172.956 101.646L161.474 101.632Z" fill="white"/>
    <path opacity="0.2" d="M165.96 110.522C165.678 110.122 165.424 109.986 165.188 110.068H165.138C165.084 110.091 165.034 110.122 164.988 110.158C164.94 110.198 164.896 110.242 164.856 110.29L164.784 110.381L164.688 110.531C164.61 110.663 164.541 110.801 164.484 110.944C164.448 111.03 164.412 111.121 164.38 111.212C164.348 111.302 164.298 111.443 164.262 111.57C164.225 111.697 164.157 111.915 164.107 112.102C164.107 112.151 164.085 112.197 164.071 112.247C164.057 112.297 164.021 112.456 163.998 112.56C163.976 112.664 163.958 112.742 163.939 112.832C163.899 113.01 163.862 113.196 163.826 113.386C163.79 113.577 163.749 113.799 163.712 114.013C163.712 114.086 163.69 114.158 163.676 114.235C163.631 114.508 163.59 114.785 163.549 115.071C164.557 121.399 165.755 128.654 166.727 133.716C166.772 133.553 166.822 133.381 166.863 133.194C167.061 132.35 167.213 131.495 167.317 130.634C168.175 124.11 167.78 113.123 165.96 110.522Z" fill="black"/>
    <path d="M155.164 101.632C155.164 101.632 154.71 126.502 155.068 136.649C155.445 147.2 159.131 181.745 159.131 181.745H164.766C164.766 181.745 164.97 147.813 165.22 137.453C165.492 126.157 166.854 101.632 166.854 101.632H155.164Z" fill="#D7D7D7"/>
    <path opacity="0.2" d="M155.164 101.632C155.164 101.632 154.71 126.502 155.068 136.649C155.445 147.2 159.131 181.745 159.131 181.745H164.766C164.766 181.745 164.97 147.813 165.22 137.453C165.492 126.157 166.854 101.632 166.854 101.632H155.164Z" fill="white"/>
    <path d="M165.138 180.02C165.161 180.02 165.138 181.859 165.138 181.859H158.641L158.369 179.793L165.138 180.02Z" fill="#263238"/>
    <path d="M184.233 180.156C184.26 180.156 184.537 181.858 184.537 181.858H177.841L177.251 179.906L184.233 180.156Z" fill="#263238"/>
    <path d="M179.167 186.44C178.94 186.458 178.714 186.399 178.526 186.272C178.465 186.222 178.418 186.158 178.389 186.084C178.361 186.011 178.352 185.932 178.363 185.854C178.363 185.809 178.376 185.764 178.399 185.725C178.422 185.686 178.455 185.654 178.495 185.631C178.862 185.445 179.938 186.085 180.061 186.176C180.073 186.185 180.083 186.198 180.089 186.212C180.094 186.227 180.096 186.243 180.093 186.258C180.09 186.273 180.083 186.287 180.073 186.299C180.062 186.31 180.049 186.318 180.034 186.321C179.75 186.392 179.459 186.432 179.167 186.44ZM178.672 185.754C178.637 185.746 178.602 185.746 178.567 185.754C178.551 185.763 178.538 185.776 178.53 185.792C178.521 185.808 178.517 185.827 178.517 185.845C178.51 185.898 178.517 185.952 178.536 186.002C178.555 186.051 178.586 186.096 178.626 186.131C178.997 186.303 179.42 186.326 179.807 186.194C179.46 185.976 179.075 185.826 178.672 185.754Z" fill="#D7D7D7"/>
    <path d="M180.016 186.326C180.004 186.33 179.991 186.33 179.979 186.326C179.634 186.14 178.971 185.418 179.039 185.041C179.051 184.984 179.082 184.932 179.128 184.895C179.173 184.857 179.23 184.837 179.289 184.837C179.349 184.828 179.41 184.832 179.468 184.85C179.526 184.867 179.58 184.897 179.625 184.937C180.011 185.25 180.079 186.213 180.079 186.254C180.079 186.268 180.075 186.281 180.069 186.294C180.063 186.307 180.054 186.318 180.043 186.326C180.034 186.328 180.025 186.328 180.016 186.326V186.326ZM179.344 184.964H179.33C179.226 184.964 179.216 185.023 179.212 185.046C179.171 185.264 179.593 185.813 179.938 186.072C179.915 185.694 179.777 185.331 179.543 185.032C179.514 185.007 179.48 184.989 179.443 184.979C179.406 184.969 179.368 184.967 179.33 184.973L179.344 184.964Z" fill="#D7D7D7"/>
    <path d="M159.168 186.439C158.883 186.466 158.598 186.394 158.36 186.235C158.307 186.187 158.267 186.128 158.242 186.061C158.217 185.995 158.207 185.924 158.214 185.854C158.215 185.81 158.226 185.768 158.249 185.731C158.271 185.695 158.303 185.665 158.342 185.645C158.746 185.418 160.085 186.099 160.235 186.176C160.25 186.183 160.262 186.195 160.27 186.21C160.277 186.224 160.279 186.241 160.276 186.258C160.274 186.274 160.266 186.289 160.255 186.3C160.243 186.312 160.228 186.319 160.212 186.321C159.869 186.394 159.519 186.434 159.168 186.439V186.439ZM158.564 185.754C158.514 185.752 158.465 185.761 158.419 185.781C158.404 185.79 158.391 185.802 158.382 185.817C158.374 185.833 158.369 185.85 158.369 185.867C158.362 185.913 158.368 185.961 158.384 186.004C158.401 186.048 158.429 186.087 158.464 186.117C158.668 186.299 159.218 186.33 159.953 186.208C159.519 185.98 159.049 185.826 158.564 185.754V185.754Z" fill="#D7D7D7"/>
    <path d="M160.198 186.326H160.167C159.763 186.144 158.968 185.418 159.032 185.05C159.032 184.964 159.109 184.85 159.322 184.832C159.403 184.82 159.485 184.826 159.564 184.849C159.642 184.871 159.714 184.911 159.776 184.964C160.198 185.314 160.285 186.208 160.289 186.249C160.291 186.262 160.289 186.276 160.284 186.288C160.278 186.3 160.269 186.31 160.257 186.317C160.24 186.327 160.219 186.33 160.198 186.326V186.326ZM159.386 184.964H159.354C159.213 184.964 159.204 185.032 159.2 185.055C159.163 185.277 159.704 185.845 160.108 186.09C160.068 185.709 159.909 185.349 159.654 185.064C159.576 185.006 159.482 184.974 159.386 184.973V184.964Z" fill="#D7D7D7"/>
</svg>
