<svg width="24" height="24" viewBox="0 0 24 24" fill="none" xmlns="http://www.w3.org/2000/svg">
    <path d="M12.0002 12.75C8.83024 12.75 6.25024 10.17 6.25024 7C6.25024 3.83 8.83024 1.25 12.0002 1.25C15.1702 1.25 17.7502 3.83 17.7502 7C17.7502 10.17 15.1702 12.75 12.0002 12.75ZM12.0002 2.75C9.66024 2.75 7.75024 4.66 7.75024 7C7.75024 9.34 9.66024 11.25 12.0002 11.25C14.3402 11.25 16.2502 9.34 16.2502 7C16.2502 4.66 14.3402 2.75 12.0002 2.75Z" fill="white" fill-opacity="0.87"/>
    <path d="M20.93 22.5C20.52 22.5 20.6972 22.5 19.84 22.5C15.84 22.5 16.66 22.5002 12.34 22.5002C8.02 22.5002 7.34012 22.4893 5.33997 22.5002C4.62745 22.5041 4.16 22.5 3.75 22.5C3.34 22.5 3 22.16 3 21.75C3 17.48 7.19 14 12.34 14C17.49 14 21.68 17.48 21.68 21.75C21.68 22.16 21.34 22.5 20.93 22.5Z" fill="white" fill-opacity="0.87"/>
</svg>
