<svg width="24" height="24" viewBox="0 0 24 24" fill="none" xmlns="http://www.w3.org/2000/svg">
    <path d="M16.28 22.1005H12.48C11.92 22.1005 10.7 21.9305 10.05 21.2805L7.01999 18.9405L7.93999 17.7505L11.04 20.1505C11.29 20.3905 11.92 20.5905 12.48 20.5905H16.28C17.18 20.5905 18.15 19.8705 18.35 19.0605L20.77 11.7105C20.93 11.2705 20.9 10.8705 20.69 10.5805C20.47 10.2705 20.07 10.0905 19.58 10.0905H15.58C15.06 10.0905 14.58 9.87048 14.25 9.49048C13.91 9.10048 13.76 8.58048 13.84 8.04048L14.34 4.83048C14.46 4.27048 14.08 3.64048 13.54 3.46048C13.05 3.28048 12.42 3.54048 12.2 3.86048L8.09999 9.96048L6.85999 9.13048L10.96 3.03048C11.59 2.09048 12.97 1.64048 14.05 2.05048C15.3 2.46048 16.1 3.84048 15.82 5.12048L15.33 8.27048C15.32 8.34048 15.32 8.44048 15.39 8.52048C15.44 8.57048 15.51 8.60048 15.59 8.60048H19.59C20.57 8.60048 21.42 9.01048 21.92 9.72048C22.41 10.4105 22.51 11.3205 22.19 12.2005L19.8 19.4805C19.43 20.9305 17.89 22.1005 16.28 22.1005Z" fill="white" fill-opacity="0.87"/>
    <path d="M5.38 21.0004H4.38C2.53 21.0004 1.63 20.1304 1.63 18.3504V8.55039C1.63 6.77039 2.53 5.90039 4.38 5.90039H5.38C7.23 5.90039 8.13 6.77039 8.13 8.55039V18.3504C8.13 20.1304 7.23 21.0004 5.38 21.0004ZM4.38 7.40039C3.29 7.40039 3.13001 7.66039 3.13001 8.55039V18.3504C3.13001 19.2404 3.29 19.5004 4.38 19.5004H5.38C6.47001 19.5004 6.63 19.2404 6.63 18.3504V8.55039C6.63 7.66039 6.47001 7.40039 5.38 7.40039H4.38Z" fill="white" fill-opacity="0.87"/>
</svg>
