<svg width="24" height="24" viewBox="0 0 24 24" fill="none" xmlns="http://www.w3.org/2000/svg">
    <path d="M9.99002 22.7496C9.79002 22.7496 9.63002 22.7096 9.51002 22.6596C9.11002 22.5096 8.43002 22.0196 8.43002 20.4696V14.0196H6.09002C4.75002 14.0196 4.27002 13.3896 4.10002 13.0196C3.93002 12.6396 3.78002 11.8696 4.66002 10.8596L12.23 2.25964C13.25 1.09964 14.08 1.17964 14.48 1.32964C14.88 1.47964 15.56 1.96964 15.56 3.51964V9.96964H17.9C19.24 9.96964 19.72 10.5996 19.89 10.9696C20.06 11.3496 20.21 12.1196 19.33 13.1296L11.76 21.7296C11.05 22.5396 10.43 22.7496 9.99002 22.7496ZM13.93 2.73964C13.9 2.77964 13.69 2.87964 13.36 3.25964L5.79002 11.8596C5.51002 12.1796 5.47002 12.3796 5.47002 12.4196C5.49002 12.4296 5.67002 12.5296 6.09002 12.5296H9.18002C9.59002 12.5296 9.93002 12.8696 9.93002 13.2796V20.4796C9.93002 20.9796 10.02 21.1996 10.06 21.2596C10.09 21.2196 10.3 21.1196 10.63 20.7396L18.2 12.1396C18.48 11.8196 18.52 11.6196 18.52 11.5796C18.5 11.5696 18.32 11.4696 17.9 11.4696H14.81C14.4 11.4696 14.06 11.1296 14.06 10.7196V3.51964C14.07 3.01964 13.97 2.80964 13.93 2.73964Z" fill="white" fill-opacity="0.87"/>
</svg>
