<svg width="3" height="11" viewBox="0 0 3 11" fill="none" xmlns="http://www.w3.org/2000/svg">
    <path d="M0.15 8.76C0.15 8.56667 0.183333 8.38667 0.25 8.22C0.323333 8.04667 0.42 7.89667 0.54 7.77C0.666667 7.64333 0.813333 7.54333 0.98 7.47C1.15333 7.39667 1.33667 7.36 1.53 7.36C1.72333 7.36 1.90333 7.39667 2.07 7.47C2.24333 7.54333 2.39333 7.64333 2.52 7.77C2.64667 7.89667 2.74667 8.04667 2.82 8.22C2.89333 8.38667 2.93 8.56667 2.93 8.76C2.93 8.96 2.89333 9.14333 2.82 9.31C2.74667 9.47667 2.64667 9.62333 2.52 9.75C2.39333 9.87667 2.24333 9.97333 2.07 10.04C1.90333 10.1133 1.72333 10.15 1.53 10.15C1.33667 10.15 1.15333 10.1133 0.98 10.04C0.813333 9.97333 0.666667 9.87667 0.54 9.75C0.42 9.62333 0.323333 9.47667 0.25 9.31C0.183333 9.14333 0.15 8.96 0.15 8.76ZM0.15 1.47C0.15 1.27667 0.183333 1.09667 0.25 0.929999C0.323333 0.756666 0.42 0.606666 0.54 0.48C0.666667 0.353333 0.813333 0.253333 0.98 0.179999C1.15333 0.106666 1.33667 0.0699997 1.53 0.0699997C1.72333 0.0699997 1.90333 0.106666 2.07 0.179999C2.24333 0.253333 2.39333 0.353333 2.52 0.48C2.64667 0.606666 2.74667 0.756666 2.82 0.929999C2.89333 1.09667 2.93 1.27667 2.93 1.47C2.93 1.67 2.89333 1.85333 2.82 2.02C2.74667 2.18667 2.64667 2.33333 2.52 2.46C2.39333 2.58667 2.24333 2.68667 2.07 2.76C1.90333 2.82667 1.72333 2.86 1.53 2.86C1.33667 2.86 1.15333 2.82667 0.98 2.76C0.813333 2.68667 0.666667 2.58667 0.54 2.46C0.42 2.33333 0.323333 2.18667 0.25 2.02C0.183333 1.85333 0.15 1.67 0.15 1.47Z" fill="white" fill-opacity="0.87"/>
</svg>
