<svg width="24" height="24" viewBox="0 0 24 24" fill="none" xmlns="http://www.w3.org/2000/svg">
    <path d="M21.33 7.9193C20.92 7.9193 20.58 7.5793 20.58 7.1693V5.3493C20.58 4.6193 19.99 4.0293 19.26 4.0293H4.73998C4.00998 4.0293 3.41998 4.6193 3.41998 5.3493V7.1793C3.41998 7.5893 3.07998 7.9293 2.66998 7.9293C2.25998 7.9293 1.91998 7.5893 1.91998 7.1693V5.3493C1.91998 3.7893 3.18998 2.5293 4.73998 2.5293H19.26C20.82 2.5293 22.08 3.7993 22.08 5.3493V7.1793C22.08 7.5893 21.75 7.9193 21.33 7.9193Z" fill="white" fill-opacity="0.87"/>
    <path d="M12 21.4694C11.59 21.4694 11.25 21.1294 11.25 20.7194V4.10938C11.25 3.69938 11.59 3.35938 12 3.35938C12.41 3.35938 12.75 3.69938 12.75 4.10938V20.7194C12.75 21.1394 12.41 21.4694 12 21.4694Z" fill="white" fill-opacity="0.87"/>
    <path d="M15.94 21.4707H8.06C7.65 21.4707 7.31 21.1307 7.31 20.7207C7.31 20.3107 7.65 19.9707 8.06 19.9707H15.94C16.35 19.9707 16.69 20.3107 16.69 20.7207C16.69 21.1307 16.35 21.4707 15.94 21.4707Z" fill="white" fill-opacity="0.87"/>
</svg>
