<svg width="24" height="24" viewBox="0 0 24 24" fill="none" xmlns="http://www.w3.org/2000/svg">
    <path d="M16.9897 9.71094H7.00977C6.59977 9.71094 6.25977 9.37094 6.25977 8.96094C6.25977 8.55094 6.59977 8.21094 7.00977 8.21094H16.9897C17.3997 8.21094 17.7397 8.55094 17.7397 8.96094C17.7397 9.37094 17.3997 9.71094 16.9897 9.71094Z" fill="white" fill-opacity="0.87"/>
    <path d="M12 9.70929C11.59 9.70929 11.25 9.36929 11.25 8.95929V7.2793C11.25 6.8693 11.59 6.5293 12 6.5293C12.41 6.5293 12.75 6.8693 12.75 7.2793V8.95929C12.75 9.36929 12.41 9.70929 12 9.70929Z" fill="white" fill-opacity="0.87"/>
    <path d="M7 17.4694C6.59 17.4694 6.25 17.1294 6.25 16.7194C6.25 16.3094 6.59 15.9694 7 15.9694C10.72 15.9694 13.75 12.8195 13.75 8.93945C13.75 8.52945 14.09 8.18945 14.5 8.18945C14.91 8.18945 15.25 8.52945 15.25 8.93945C15.25 13.6495 11.55 17.4694 7 17.4694Z" fill="white" fill-opacity="0.87"/>
    <path d="M17.0002 17.4702C15.0302 17.4702 13.2002 16.4903 11.8602 14.7003C11.6102 14.3703 11.6802 13.9003 12.0102 13.6503C12.3402 13.4003 12.8102 13.4702 13.0602 13.8002C14.1202 15.2002 15.5202 15.9702 17.0102 15.9702C17.4202 15.9702 17.7602 16.3102 17.7602 16.7202C17.7602 17.1302 17.4102 17.4702 17.0002 17.4702Z" fill="white" fill-opacity="0.87"/>
    <path d="M15 22.75H9C3.57 22.75 1.25 20.43 1.25 15V9C1.25 3.57 3.57 1.25 9 1.25H15C20.43 1.25 22.75 3.57 22.75 9V15C22.75 20.43 20.43 22.75 15 22.75ZM9 2.75C4.39 2.75 2.75 4.39 2.75 9V15C2.75 19.61 4.39 21.25 9 21.25H15C19.61 21.25 21.25 19.61 21.25 15V9C21.25 4.39 19.61 2.75 15 2.75H9Z" fill="white" fill-opacity="0.87"/>
</svg>
