<svg width="32" height="32" viewBox="0 0 32 32" fill="none" xmlns="http://www.w3.org/2000/svg">
    <path d="M28.7067 9.53333C28.504 9.41631 28.2741 9.3547 28.04 9.3547C27.806 9.3547 27.576 9.41631 27.3734 9.53333L22.6667 11.8533C22.6287 10.8181 22.1906 9.83796 21.4445 9.11925C20.6984 8.40054 19.7026 7.9993 18.6667 8H6.66669C5.60582 8 4.58841 8.42143 3.83826 9.17157C3.08811 9.92172 2.66669 10.9391 2.66669 12V20C2.66669 21.0609 3.08811 22.0783 3.83826 22.8284C4.58841 23.5786 5.60582 24 6.66669 24H18.6667C19.7026 24.0007 20.6984 23.5995 21.4445 22.8807C22.1906 22.162 22.6287 21.1819 22.6667 20.1467L27.4134 22.52C27.5951 22.6132 27.7958 22.6634 28 22.6667C28.2497 22.6675 28.4945 22.5982 28.7067 22.4667C28.8988 22.3466 29.0572 22.1795 29.1669 21.9812C29.2765 21.7829 29.3338 21.5599 29.3334 21.3333V10.6667C29.3338 10.4401 29.2765 10.2171 29.1669 10.0188C29.0572 9.82051 28.8988 9.65343 28.7067 9.53333ZM20 20C20 20.3536 19.8595 20.6928 19.6095 20.9428C19.3594 21.1929 19.0203 21.3333 18.6667 21.3333H6.66669C6.31307 21.3333 5.97393 21.1929 5.72388 20.9428C5.47383 20.6928 5.33335 20.3536 5.33335 20V12C5.33335 11.6464 5.47383 11.3072 5.72388 11.0572C5.97393 10.8071 6.31307 10.6667 6.66669 10.6667H18.6667C19.0203 10.6667 19.3594 10.8071 19.6095 11.0572C19.8595 11.3072 20 11.6464 20 12V20ZM26.6667 19.1733L22.6667 17.1733V14.8267L26.6667 12.8267V19.1733Z" fill="#0069A3"/>
</svg>
